# xmcd CD database file
#
# Track frame offsets:
#	150
#	73045
#	99732
#	147840
#	165240
#
# Disc length: 2600 seconds
#
# Revision: 0
# Processed by: cddbd v1.5PL3 Copyright (c) Steve Scherf et al.
# Submitted via: CDex 1.51
#
DISCID=3d0a2605
DTITLE=Sadao and Charlie - Iberian Waltz
DYEAR=1900
DGENRE=Jazz
TTITLE0=Iberian Waltz
TTITLE1=I throught about you
TTITLE2=Palisades
TTITLE3=Lament
TTITLE4=You are my heart`s delight
EXTD=
EXTT0=
EXTT1=
EXTT2=
EXTT3=
EXTT4=
PLAYORDER=
